<?xml version="1.0" standalone="no"?>
<!DOCTYPE svg PUBLIC "-//W3C//DTD SVG 20010904//EN"
 "http://www.w3.org/TR/2001/REC-SVG-20010904/DTD/svg10.dtd">
<svg version="1.0" xmlns="http://www.w3.org/2000/svg"
 width="256.000000pt" height="256.000000pt" viewBox="0 0 256.000000 256.000000"
 preserveAspectRatio="xMidYMid meet">
<metadata>
Created by potrace 1.11, written by Peter Selinger 2001-2013
</metadata>
<g transform="translate(0.000000,256.000000) scale(0.100000,-0.100000)"
fill="#000000" stroke="none">
<path d="M1040 2334 c0 -8 4 -14 10 -14 5 0 12 -11 16 -25 3 -14 10 -25 15
-25 5 0 9 -5 9 -12 0 -6 17 -28 39 -49 24 -24 43 -55 51 -83 7 -25 16 -46 20
-46 21 0 36 -195 20 -259 -17 -67 -31 -101 -41 -101 -5 0 -9 -9 -9 -20 0 -11
-6 -23 -14 -26 -8 -3 -25 -22 -39 -43 -34 -52 -90 -107 -127 -126 -36 -18 -46
-15 -35 12 12 26 11 31 -5 97 -11 47 -23 68 -56 100 -65 62 -118 107 -150 125
-16 9 -30 19 -32 24 -2 4 -12 7 -23 7 -25 0 -59 -56 -59 -97 0 -18 -4 -33 -9
-33 -5 0 -12 -21 -16 -47 -4 -27 -10 -52 -13 -58 -11 -18 -14 -60 -15 -215 -1
-205 14 -267 89 -368 30 -40 74 -86 97 -102 23 -16 47 -34 53 -39 6 -5 19 -11
30 -15 10 -3 33 -19 51 -36 18 -16 39 -30 48 -30 15 0 160 -44 200 -60 22 -10
73 -18 152 -26 42 -5 56 -2 72 13 11 11 49 32 83 49 35 16 65 32 66 37 2 4 8
7 14 7 6 0 19 11 30 25 11 14 25 25 31 25 7 0 24 11 39 25 15 14 30 25 33 25
9 0 75 69 75 78 0 4 14 16 30 27 34 22 38 28 97 146 61 125 79 198 53 214 -6
4 -9 12 -8 18 9 45 -123 277 -158 277 -8 0 -14 3 -14 8 0 4 -9 13 -21 20 -19
12 -20 11 -14 -7 8 -26 -14 -181 -26 -181 -5 0 -9 -9 -9 -19 0 -11 -4 -23 -10
-26 -5 -3 -10 -16 -10 -28 -1 -12 -19 -40 -40 -62 -22 -22 -40 -46 -40 -52 0
-7 -4 -13 -9 -13 -5 0 -17 -17 -26 -37 -10 -20 -23 -43 -29 -51 -34 -42 -64
-71 -68 -66 -3 3 -14 -15 -24 -40 -10 -24 -22 -42 -26 -40 -5 3 -8 -4 -8 -14
0 -11 -6 -25 -14 -32 -8 -6 -16 -20 -18 -31 -2 -11 -7 -18 -13 -17 -12 4 -7
42 6 46 5 2 9 11 9 21 0 9 7 26 15 37 8 10 15 27 15 37 0 9 4 17 8 17 5 0 15
12 23 28 7 15 28 45 46 66 18 22 33 44 33 49 0 5 16 43 35 84 19 42 35 81 34
87 -2 11 3 29 23 76 15 35 18 62 18 166 1 89 -4 109 -54 234 -16 40 -88 140
-100 140 -4 0 -20 15 -36 33 -16 18 -55 46 -87 62 -32 15 -69 38 -83 51 -37
33 -97 64 -125 64 -13 0 -26 4 -29 9 -10 16 -46 20 -46 5z"/>
<path d="M1515 711 c-33 -16 -76 -32 -95 -36 -19 -4 -46 -14 -59 -22 -18 -12
-22 -12 -16 -2 6 11 5 12 -6 2 -7 -7 -23 -13 -36 -13 -13 0 -23 -4 -23 -9 0
-5 -20 -12 -45 -15 -25 -4 -45 -11 -45 -17 0 -5 -7 -9 -16 -9 -12 0 -14 -9
-12 -42 l3 -43 44 -3 c25 -2 54 1 65 7 12 5 37 12 56 15 19 4 42 15 50 26 8
11 27 21 42 22 15 1 24 6 22 10 -3 4 11 8 30 8 19 0 37 4 40 9 4 5 29 12 56
16 28 4 50 11 50 16 0 5 7 9 15 9 20 0 55 36 55 56 0 51 -85 59 -175 15z"/>
<path d="M1630 580 c13 -8 13 -10 -1 -10 -10 0 -37 -11 -60 -25 -24 -14 -54
-25 -66 -25 -13 0 -23 -4 -23 -10 0 -5 -15 -10 -32 -10 -32 -1 -132 -30 -145
-44 -3 -3 -16 -6 -27 -6 -33 -1 -66 -34 -66 -68 0 -23 6 -32 30 -42 25 -10 35
-10 64 4 19 9 43 16 54 16 12 0 24 5 27 10 3 6 20 10 36 10 17 0 47 11 67 25
20 14 47 25 59 25 12 0 25 5 28 10 3 6 19 10 35 10 16 0 31 4 34 9 3 5 21 12
40 15 44 8 66 53 46 92 -12 21 -20 24 -64 24 -37 0 -47 -3 -36 -10z"/>
<path d="M1635 383 c-11 -2 -29 -8 -40 -12 -52 -22 -113 -41 -132 -41 -12 0
-25 -4 -28 -10 -3 -5 -17 -10 -31 -10 -13 0 -24 -4 -24 -10 0 -5 -7 -10 -15
-10 -41 0 5 -66 56 -80 63 -18 144 -5 179 30 10 10 30 26 44 35 14 10 26 26
26 36 0 11 5 19 10 19 6 0 10 11 10 24 0 25 -19 35 -55 29z"/>
</g>
</svg>
